<?xml version="1.0" standalone="no"?>
<!DOCTYPE svg PUBLIC "-//W3C//DTD SVG 20010904//EN"
 "http://www.w3.org/TR/2001/REC-SVG-20010904/DTD/svg10.dtd">
<svg version="1.0" xmlns="http://www.w3.org/2000/svg"
 width="200.000000pt" height="200.000000pt" viewBox="0 0 200.000000 200.000000"
 preserveAspectRatio="xMidYMid meet">
<metadata>
Created by potrace 1.10, written by Peter Selinger 2001-2011
</metadata>
<g transform="translate(0.000000,200.000000) scale(0.100000,-0.100000)"
fill="#000000" stroke="none">
<path d="M1437 1811 l-77 -80 -56 20 c-134 47 -428 9 -666 -87 l-90 -37 -56
54 c-73 70 -109 94 -160 110 -47 14 -54 11 -54 -23 4 -185 14 -414 21 -493 5
-55 9 -107 9 -115 0 -8 3 -25 6 -38 4 -20 2 -22 -27 -17 -48 8 -97 26 -146 52
-34 18 -46 20 -53 11 -5 -9 7 -19 40 -34 70 -32 139 -54 166 -54 20 0 25 -6
28 -37 6 -44 2 -59 -15 -60 -95 -6 -247 -30 -247 -39 0 -14 135 -9 184 7 16 5
42 9 57 9 23 0 29 -4 29 -23 0 -12 7 -54 15 -92 19 -89 19 -92 -2 -98 -28 -8
-148 -53 -182 -68 -17 -8 -31 -20 -31 -26 0 -15 21 -17 35 -4 14 12 197 83
202 78 4 -5 7 -17 18 -87 4 -25 11 -52 16 -61 10 -20 20 -97 23 -179 2 -36 6
-81 9 -100 4 -19 9 -69 11 -110 3 -41 5 -78 5 -82 1 -5 8 -8 17 -8 12 0 15 6
10 24 -6 23 -4 24 29 19 19 -3 42 -2 52 2 10 5 26 7 36 6 22 -3 22 25 -1 33
-18 7 -38 18 -85 50 -24 16 -30 17 -38 5 -6 -10 -9 -4 -9 21 0 19 -3 45 -6 57
-7 25 18 36 83 35 31 -1 43 3 43 13 0 16 -11 24 -41 30 -12 3 -37 9 -56 16
-29 9 -34 15 -31 37 2 22 8 27 28 26 14 -1 27 2 30 6 3 5 21 12 40 17 59 15
45 38 -25 39 -33 1 -67 2 -76 3 -12 1 -21 25 -36 100 l-20 99 36 21 c55 31 94
66 90 79 -3 8 -25 -3 -59 -28 -65 -47 -80 -49 -80 -12 -1 15 -7 54 -15 87 -8
33 -15 65 -15 71 0 7 26 15 63 18 34 4 69 11 76 15 24 16 -5 20 -69 11 -35 -5
-65 -8 -66 -7 -1 1 -4 19 -8 40 -8 43 -10 43 105 26 42 -7 85 -8 95 -4 14 6
-6 12 -66 22 -47 7 -96 15 -110 17 -14 3 -28 5 -31 5 -3 1 -7 45 -8 98 -1 53
-4 100 -7 105 -3 4 -7 88 -9 185 -3 98 -7 202 -11 231 -5 52 -5 54 18 47 44
-14 93 -48 158 -111 l65 -63 60 26 c151 63 308 103 465 119 98 10 128 8 202
-12 35 -9 72 -18 83 -21 15 -3 39 15 92 70 79 81 77 81 89 -8 3 -27 15 -84 26
-125 11 -41 29 -113 40 -160 11 -47 26 -107 34 -135 7 -27 15 -65 16 -84 3
-34 2 -35 -67 -65 -85 -37 -81 -34 -69 -46 6 -6 32 2 71 20 35 17 67 30 71 30
7 0 34 -111 28 -117 -1 -1 -18 3 -38 9 -20 6 -45 7 -55 3 -15 -6 -14 -9 12
-17 17 -5 41 -11 55 -14 13 -3 27 -8 30 -10 8 -9 36 -130 32 -142 -2 -7 -21
-6 -58 3 -30 7 -57 9 -59 4 -8 -11 7 -18 66 -29 29 -6 55 -12 58 -15 7 -8 3
-193 -4 -205 -3 -6 -15 -10 -25 -10 -22 0 -44 -34 -36 -55 3 -8 20 -15 38 -17
30 -3 33 -6 36 -41 3 -34 1 -37 -15 -30 -26 12 -45 10 -72 -9 -33 -23 -18 -38
38 -38 26 0 52 -5 57 -10 7 -7 28 -7 63 0 36 7 59 6 72 0 16 -9 19 -7 19 9 0
26 -26 33 -82 23 l-46 -9 -6 91 c-3 50 -4 137 -3 193 l2 102 25 -5 c14 -3 41
-10 60 -15 46 -12 50 -11 50 6 0 9 -14 16 -37 20 -97 14 -108 19 -109 45 0 14
-6 43 -12 65 -19 66 -21 65 73 62 73 -3 85 -1 85 13 0 13 -13 16 -77 17 -43 1
-83 2 -89 2 -12 1 -23 32 -29 81 -2 14 -5 32 -7 39 -3 13 66 35 175 56 15 3
27 12 27 21 0 10 -6 14 -17 10 -10 -2 -49 -12 -88 -22 -38 -9 -78 -20 -87 -25
-14 -8 -18 -3 -24 28 -11 64 -41 194 -63 273 -12 41 -30 122 -41 180 -27 142
-34 165 -51 168 -8 1 -49 -33 -92 -77z"/>
<path d="M1059 1673 c-5 -15 -15 -49 -20 -76 -13 -56 -18 -54 -75 28 -20 30
-40 55 -44 55 -20 0 -38 -45 -54 -133 -21 -112 -18 -131 16 -115 16 8 24 21
25 42 6 91 16 156 24 156 5 0 9 -4 9 -9 0 -17 80 -111 94 -111 16 0 26 21 26
58 0 34 10 72 19 72 7 0 71 -136 71 -151 0 -5 7 -9 15 -9 8 0 15 6 15 14 0 21
-91 206 -102 206 -4 0 -13 -12 -19 -27z"/>
<path d="M1444 1477 c-11 -12 -35 -39 -53 -60 -25 -28 -31 -41 -23 -49 14 -14
27 -3 82 62 32 38 37 50 27 59 -10 8 -18 5 -33 -12z"/>
<path d="M574 1299 c-10 -18 8 -28 71 -40 61 -11 105 0 105 26 0 21 -163 34
-176 14z"/>
<path d="M1396 1264 c-22 -21 -20 -31 9 -50 35 -23 75 -12 75 21 0 40 -54 59
-84 29z"/>
<path d="M984 1186 c-7 -20 43 -86 66 -86 24 0 51 33 53 66 2 29 1 29 -56 32
-44 2 -59 -1 -63 -12z"/>
<path d="M570 1170 c-24 -24 -25 -34 -5 -50 20 -17 54 -3 61 25 11 46 -21 60
-56 25z"/>
<path d="M1040 1080 c-59 -4 -134 -16 -170 -28 -36 -11 -77 -23 -91 -26 -36
-8 -80 -51 -82 -82 -2 -22 5 -28 47 -44 35 -14 65 -18 105 -15 88 7 145 17
156 26 6 4 46 12 90 17 44 6 112 17 150 26 39 9 101 18 140 20 55 2 71 6 73
19 5 23 -34 44 -119 66 -98 25 -172 30 -299 21z m176 -37 c16 -53 42 -64 59
-25 5 12 15 22 23 22 21 0 92 -24 92 -32 0 -3 -26 -9 -57 -12 -110 -10 -158
-18 -170 -28 -7 -5 -16 -8 -20 -5 -8 4 -111 -13 -188 -32 -62 -15 -146 -16
-192 -2 -50 14 -53 22 -17 50 36 29 72 26 106 -6 36 -34 62 -23 66 29 4 42 9
44 134 47 45 1 85 4 87 7 2 2 19 4 38 4 23 0 35 -5 39 -17z m-320 -29 c-3 -9
-6 -20 -6 -26 0 -6 -9 -3 -21 8 -19 17 -19 19 -2 25 29 12 36 10 29 -7z"/>
<path d="M1428 533 c-21 -8 -38 -19 -38 -24 0 -5 -6 -9 -13 -9 -25 0 -53 -45
-79 -125 -47 -146 -43 -183 12 -130 l28 27 4 -27 c4 -37 30 -54 54 -34 9 8 25
13 36 11 11 -2 19 3 20 15 0 10 2 23 3 28 2 6 3 13 4 17 0 4 19 -1 42 -11 44
-20 79 -17 79 5 0 9 -11 14 -27 14 -16 0 -41 7 -57 15 -39 20 -51 19 -64 -7
-6 -13 -11 -17 -11 -10 -2 28 -30 9 -39 -25 -8 -32 -10 -34 -12 -13 -1 14 -2
30 -1 37 3 21 -20 25 -40 7 -27 -25 -35 -10 -16 33 8 21 22 58 29 82 11 38 21
50 68 78 36 22 68 33 93 33 38 0 50 13 21 24 -25 10 -56 6 -96 -11z"/>
<path d="M922 449 c2 -6 25 -20 52 -30 55 -20 82 -42 102 -81 16 -31 15 -33
-19 -17 -20 9 -30 8 -51 -6 -23 -15 -26 -23 -20 -49 l6 -31 -37 43 c-20 23
-45 42 -55 42 -11 0 -45 -11 -76 -25 -68 -30 -89 -31 -111 -5 -21 24 -33 26
-33 5 0 -16 55 -55 78 -55 7 0 32 9 55 19 83 38 90 37 131 -13 45 -55 82 -64
73 -17 -7 35 1 45 21 25 20 -21 41 -2 22 21 -16 19 -1 20 27 0 17 -12 23 -12
32 -1 16 19 -20 96 -64 134 -44 39 -142 69 -133 41z"/>
<path d="M1864 276 c-4 -12 -11 -13 -31 -5 -34 13 -62 3 -73 -27 -6 -14 -18
-24 -29 -24 -22 0 -61 -36 -61 -57 0 -7 21 -19 46 -25 26 -7 49 -18 51 -25 3
-7 12 -13 20 -13 13 0 15 12 11 70 -3 39 -1 73 4 76 5 3 20 -1 33 -10 13 -9
34 -16 45 -16 18 0 21 5 18 32 -3 34 -24 49 -34 24z"/>
</g>
</svg>
