<?xml version="1.0" encoding="utf-8"?>
<svg version="1.1" id="图层_1" xmlns="http://www.w3.org/2000/svg" xmlns:xlink="http://www.w3.org/1999/xlink" x="0px" y="0px"
	 width="384px" height="384px" viewBox="0 0 384 384" style="enable-background:new 0 0 384 384;" xml:space="preserve">
<style type="text/css">
	.st0{fill:#FFFFFF;}
</style>
<path class="st0" d="M203.7,384c-8,0-16,0-24,0c-4.7-0.6-9.4-1.1-14-1.7c-35.1-5-66.7-18.3-94.1-40.7c-37-30.2-60-68.8-68.5-115.8
	c-1.3-7.1-2-14.3-3-21.4c0-8,0-16,0-24c0.2-1.1,0.5-2.2,0.6-3.3c1.3-8.6,2.1-17.3,3.9-25.9C22.2,66.5,99.3,2.6,185.9,0.8
	c37.1-0.8,71.9,7.3,103.5,26.9c59.2,36.6,90.8,90.1,93.7,159.6c1.7,40.1-9.2,77.3-31.6,110.7c-30.5,45.2-72.7,73-126.4,83.1
	C218,382.3,210.8,383,203.7,384z M81.1,319.9c57.8,53.1,161.6,60.9,230.4-8.4c69.2-69.7,59.8-173.1,7.9-229.3
	c-12.5,12.5-25.1,25.1-37.7,37.7c-0.1-0.1,0.1,0.2,0.3,0.4c24,24.5,24,65.1-2.4,90.3c-18.5,17.8-36.4,36.3-54.6,54.4
	c-5.6,5.6-11.1,11.1-16.7,16.7c-10.1,10-23.4,10-33.6-0.1c-8.2-8.2-16.4-16.4-24.6-24.6c-1.1-1.1-1.9-2.6-2.6-3.6
	C125,276,103,297.9,81.1,319.9z M303.2,65.5C234.2,4.5,123.9,8.5,61,85.1c-60.5,73.6-42.5,170,3.4,217.8
	c21.9-21.9,43.7-43.7,65.7-65.7c-0.7-0.7-1.5-1.6-2.3-2.5c-8.8-8.8-17.7-17.6-26.4-26.5c-10.9-11.1-16.8-24.5-17.8-40.1
	c-1.6-25.6,12.4-49.6,35.6-60.8c23.1-11.1,50.8-7.1,69.7,10.2c0.9,0.8,1.8,1.6,2.6,2.3c0.5-0.4,0.7-0.5,0.9-0.7
	c19.7-17.9,42.1-22.6,67.3-13.8c1.1,0.4,3.1-0.3,4-1.2c9.9-9.7,19.6-19.5,29.5-29.3C296.4,71.7,299.8,68.7,303.2,65.5z"/>
</svg>
