 <svg version="1.0" xmlns="http://www.w3.org/2000/svg"  width="300.000000pt" height="304.000000pt" viewBox="0 0 300.000000 304.000000"  preserveAspectRatio="xMidYMid meet">  <g transform="translate(0.000000,304.000000) scale(0.100000,-0.100000)" fill="#000000" stroke="none"> <path d="M1985 2961 c-59 -27 -242 -244 -306 -360 -29 -54 -40 -58 -212 -71 -75 -6 -144 -17 -165 -26 -33 -15 -93 -29 -220 -53 -23 -4 -48 -15 -55 -24 -19 -26 -135 -69 -167 -62 -15 3 -44 24 -66 46 -21 22 -66 56 -99 76 -33 20 -73 49 -88 66 -23 24 -33 28 -59 23 -17 -3 -45 -6 -62 -6 -19 0 -43 -11 -63 -28 -29 -25 -33 -34 -43 -122 -25 -209 -28 -298 -15 -506 6 -115 16 -218 22 -229 6 -11 13 -44 17 -73 l7 -53 -38 7 c-35 6 -143 48 -205 79 -23 11 -29 11 -38 0 -13 -15 16 -39 66 -55 16 -4 53 -17 81 -28 29 -11 71 -23 93 -27 39 -7 40 -7 40 -50 0 -23 3 -56 6 -73 4 -22 2 -30 -7 -29 -8 1 -59 -4 -114 -10 -55 -7 -125 -15 -155 -17 -30 -3 -56 -6 -57 -6 -2 0 -3 -7 -3 -16 0 -13 14 -15 103 -9 57 3 115 8 128 12 13 3 43 8 66 10 46 5 44 8 63 -82 6 -27 21 -72 35 -100 42 -89 41 -92 -50 -126 -44 -17 -95 -37 -113 -45 -18 -8 -39 -14 -46 -14 -8 0 -19 -7 -26 -15 -7 -8 -21 -15 -31 -15 -23 0 -35 -18 -20 -33 8 -8 31 -2 83 20 120 50 202 82 228 88 23 6 26 3 28 -27 1 -18 14 -76 27 -128 33 -123 36 -143 41 -275 3 -60 9 -128 14 -150 5 -22 12 -87 15 -145 7 -114 7 -116 19 -175 15 -70 52 -88 41 -19 -3 19 -7 50 -10 69 l-6 34 50 -6 c34 -4 56 -2 66 7 8 7 24 10 35 7 13 -3 24 1 31 14 8 16 6 21 -14 28 -12 5 -29 16 -36 25 -7 9 -19 16 -25 16 -7 0 -30 13 -52 30 -21 16 -47 30 -56 30 -13 0 -18 8 -18 28 0 15 -3 43 -6 63 l-6 37 43 7 c24 5 63 7 87 6 39 -2 42 0 42 24 0 28 1 28 -88 46 -70 15 -76 20 -85 67 -6 32 -6 32 33 32 21 0 42 4 45 10 3 5 25 15 48 21 51 13 68 26 60 45 -4 11 -26 14 -100 13 -52 -1 -99 3 -104 8 -5 5 -14 35 -19 66 -5 32 -12 63 -17 70 -4 6 -8 17 -9 22 -1 6 -4 35 -8 66 l-7 57 148 6 c204 9 233 14 233 37 0 29 43 101 84 142 34 32 45 37 86 37 31 0 70 -10 113 -30 68 -31 106 -37 122 -21 6 5 60 19 120 31 61 12 118 27 129 32 10 5 45 10 77 10 47 1 67 -4 99 -26 42 -28 44 -35 31 -104 l-8 -42 51 0 c28 0 159 7 291 15 132 8 254 15 272 15 l31 0 -1 -99 -1 -100 -43 -16 c-30 -12 -48 -26 -54 -43 -12 -32 -1 -44 54 -57 41 -11 42 -12 45 -58 3 -45 2 -47 -20 -39 -39 13 -72 6 -101 -20 -35 -33 -23 -43 65 -53 37 -3 70 -11 74 -16 3 -5 15 -7 27 -4 12 2 42 6 67 9 25 2 50 5 55 6 25 5 43 -2 71 -27 37 -34 84 -98 84 -113 0 -6 7 -22 16 -36 22 -33 12 -40 -35 -24 -51 16 -71 8 -71 -29 0 -24 -3 -28 -21 -24 -15 4 -22 0 -26 -16 -4 -16 -10 -20 -22 -15 -9 5 -38 9 -64 10 -47 2 -49 1 -63 -32 -11 -25 -23 -36 -54 -45 -41 -13 -73 -48 -68 -77 3 -13 86 -53 107 -50 23 2 28 -7 27 -46 -1 -49 16 -78 35 -59 8 8 10 52 7 142 -5 147 -6 146 62 111 47 -24 76 -26 84 -5 3 8 12 12 21 9 25 -10 45 14 38 47 -6 32 1 35 43 19 15 -6 35 -8 44 -5 22 7 34 33 22 49 -5 6 -19 37 -32 70 -30 76 -92 154 -138 173 -25 10 -57 13 -108 10 l-72 -4 -9 76 c-5 42 -9 101 -8 131 2 30 3 116 4 191 l2 137 37 -8 c170 -37 227 -42 227 -20 0 10 -14 17 -45 21 -75 10 -223 39 -228 44 -3 3 -6 20 -7 38 -1 17 -5 65 -10 105 l-8 73 108 -2 c59 -1 136 -8 172 -16 47 -11 68 -12 76 -4 7 7 7 14 1 20 -17 17 -119 33 -234 37 -63 3 -116 7 -118 9 -2 2 -6 48 -9 103 -6 98 -6 99 18 105 13 3 76 17 139 32 122 28 180 49 180 67 0 15 -64 4 -154 -26 -26 -9 -57 -16 -70 -16 -13 0 -40 -7 -61 -16 -21 -8 -43 -13 -50 -11 -8 4 -14 51 -19 154 -15 334 -25 424 -57 528 -16 55 -36 114 -43 130 -7 17 -19 53 -25 80 -7 28 -18 62 -26 77 -7 15 -16 42 -20 58 -7 32 -65 151 -85 176 -18 21 -135 18 -185 -5z m-39 -819 c25 -15 83 -71 93 -91 12 -21 5 -91 -8 -91 -4 0 -21 16 -38 35 -31 35 -34 36 -115 26 -37 -5 -52 -105 -23 -160 17 -33 59 -51 95 -40 47 13 80 10 80 -8 0 -18 -28 -53 -42 -53 -5 0 -26 -12 -45 -27 -32 -25 -47 -28 -124 -31 -80 -4 -93 -1 -142 24 -51 25 -57 32 -86 98 -37 85 -38 93 -9 174 43 122 119 166 268 156 46 -3 89 -8 96 -12z m-884 -211 c53 -34 86 -76 116 -148 28 -67 28 -103 -2 -162 -36 -70 -85 -109 -148 -118 -95 -13 -162 1 -227 47 -57 41 -81 84 -81 143 0 52 11 59 44 28 12 -10 40 -21 64 -25 40 -6 46 -4 78 28 26 26 34 42 34 69 0 44 -15 85 -42 114 -34 37 -18 53 55 53 52 0 71 -5 109 -29z m1388 -1697 c0 -8 -4 -12 -10 -9 -5 3 -10 10 -10 16 0 5 5 9 10 9 6 0 10 -7 10 -16z"/> <path d="M1679 1226 c-2 -3 -70 -17 -149 -31 -83 -15 -158 -35 -176 -46 -17 -10 -38 -19 -46 -19 -20 0 -145 57 -153 70 -7 12 -55 13 -73 2 -21 -14 -83 -116 -74 -123 4 -4 162 1 352 12 378 22 370 20 370 84 0 40 -31 71 -51 51z"/> <path d="M2065 770 c-72 -11 -205 -101 -205 -140 0 -9 -3 -20 -7 -24 -4 -4 -13 -26 -19 -49 -7 -23 -19 -61 -28 -84 -8 -22 -18 -64 -21 -92 -7 -64 12 -77 54 -37 33 32 51 33 51 3 0 -28 26 -67 45 -67 8 0 20 9 28 20 11 15 21 19 39 15 19 -5 27 -1 37 19 8 13 11 34 8 45 -8 30 6 33 55 13 51 -22 113 -24 113 -3 0 9 -22 19 -60 29 -33 8 -67 21 -76 28 -23 20 -35 17 -58 -13 -11 -16 -21 -22 -21 -15 0 6 -9 12 -20 12 -15 0 -23 -12 -34 -47 l-14 -48 -7 53 c-8 58 -27 68 -60 32 -38 -41 -47 -13 -16 48 10 20 26 66 34 102 19 74 36 92 133 140 38 19 77 30 103 30 28 0 41 4 41 14 0 17 -41 23 -95 16z"/> <path d="M1310 650 c-21 -13 2 -35 52 -49 74 -23 137 -76 157 -133 12 -33 12 -32 -25 -13 -36 18 -61 19 -71 2 -4 -8 -16 -17 -27 -20 -15 -6 -17 -14 -12 -47 4 -25 2 -40 -4 -40 -5 0 -10 4 -10 10 0 17 -83 100 -101 100 -16 0 -74 -23 -154 -60 -49 -23 -88 -17 -116 18 -15 20 -22 23 -32 13 -31 -31 53 -84 122 -76 24 3 49 9 55 13 6 5 37 19 68 31 l58 23 27 -33 c15 -19 44 -51 65 -72 32 -34 40 -37 58 -27 18 10 21 17 15 46 -7 38 -6 39 30 22 33 -15 56 2 35 27 -18 22 -4 32 18 12 10 -10 26 -17 35 -17 69 0 -1 161 -99 226 -35 24 -130 52 -144 44z"/> </g> </svg> 
